<svg xmlns="http://www.w3.org/2000/svg" width="50.639" height="49.976" viewBox="0 0 50.639 49.976"><defs><style>.a,.c{fill:#2b3a44;}.b{fill:#00eeae;stroke:#00eeae;}.c{stroke:#2b3a44;stroke-width:0.3px;}</style></defs><g transform="translate(0.619 0.619)"><path class="a" d="M282.994,275.815h1.333a1.522,1.522,0,0,0,1.129-.371,1.374,1.374,0,0,0,.37-1.015,1.3,1.3,0,0,0-.086-.469,1.094,1.094,0,0,0-.256-.389,1.19,1.19,0,0,0-.435-.266,1.8,1.8,0,0,0-.622-.1,1.716,1.716,0,0,0-.493.072,1.516,1.516,0,0,0-.431.2,1.108,1.108,0,0,0-.309.318.788.788,0,0,0-.117.428h-2.742a2.406,2.406,0,0,1,.325-1.249,2.949,2.949,0,0,1,.878-.933,4.227,4.227,0,0,1,1.272-.585,5.562,5.562,0,0,1,1.516-.2,6.85,6.85,0,0,1,1.724.2,4.059,4.059,0,0,1,1.338.6,2.77,2.77,0,0,1,.862.974,2.825,2.825,0,0,1,.309,1.346,2.006,2.006,0,0,1-.131.719,2.44,2.44,0,0,1-.37.648,2.793,2.793,0,0,1-.576.552,4.055,4.055,0,0,1-.756.427,3.2,3.2,0,0,1,1.478.955,2.383,2.383,0,0,1,.537,1.59,2.743,2.743,0,0,1-.337,1.363,3.046,3.046,0,0,1-.931,1.012,4.429,4.429,0,0,1-1.4.626,6.875,6.875,0,0,1-1.753.214,6.046,6.046,0,0,1-1-.083,5.525,5.525,0,0,1-.963-.246,4.353,4.353,0,0,1-.87-.424,3,3,0,0,1-.7-.62,2.854,2.854,0,0,1-.472-.805,2.762,2.762,0,0,1-.175-1.012H282.9a1.006,1.006,0,0,0,.123.487,1.31,1.31,0,0,0,.329.393,1.539,1.539,0,0,0,.484.262,1.783,1.783,0,0,0,.585.094,2.086,2.086,0,0,0,.671-.1,1.462,1.462,0,0,0,.5-.282,1.218,1.218,0,0,0,.309-.419,1.268,1.268,0,0,0,.1-.518,1.386,1.386,0,0,0-.447-1.169,1.96,1.96,0,0,0-1.232-.341h-1.338Z" transform="translate(-269.625 -252.28)"/><path class="a" d="M367.454,271.27v1.986h-.147a5.35,5.35,0,0,0-1.324.158,3.639,3.639,0,0,0-1.109.476,2.986,2.986,0,0,0-.825.795,2.84,2.84,0,0,0-.46,1.136,3.284,3.284,0,0,1,1-.606,3.6,3.6,0,0,1,1.346-.233,3.411,3.411,0,0,1,1.439.288,3.009,3.009,0,0,1,1.053.795,3.452,3.452,0,0,1,.645,1.188,4.788,4.788,0,0,1,.22,1.476,3.589,3.589,0,0,1-.309,1.489,3.772,3.772,0,0,1-2.167,1.986,4.666,4.666,0,0,1-1.663.288,4.96,4.96,0,0,1-1.735-.3,3.849,3.849,0,0,1-2.3-2.245,4.895,4.895,0,0,1-.33-1.851v-.922a6.225,6.225,0,0,1,.234-1.736,5.681,5.681,0,0,1,.647-1.453,5.317,5.317,0,0,1,.993-1.158,5.911,5.911,0,0,1,1.267-.852,6.653,6.653,0,0,1,1.478-.525,7.254,7.254,0,0,1,1.613-.18Zm-2.472,5.647a1.661,1.661,0,0,0-.91.227,1.51,1.51,0,0,0-.544.568v.757a2.528,2.528,0,0,0,.394,1.563,1.387,1.387,0,0,0,1.159.506,1.263,1.263,0,0,0,.585-.139,1.446,1.446,0,0,0,.463-.383,1.836,1.836,0,0,0,.305-.573,2.448,2.448,0,0,0-.009-1.476,1.719,1.719,0,0,0-.325-.568,1.376,1.376,0,0,0-.493-.36A1.566,1.566,0,0,0,364.982,276.917Z" transform="translate(-340.33 -252.292)"/><path class="a" d="M447.472,277.952a6.246,6.246,0,0,1-.3,2.05,3.866,3.866,0,0,1-.845,1.435,3.4,3.4,0,0,1-1.3.847,4.8,4.8,0,0,1-1.666.277,4.855,4.855,0,0,1-1.679-.277,3.389,3.389,0,0,1-1.306-.847,3.927,3.927,0,0,1-.85-1.435,6.18,6.18,0,0,1-.3-2.05v-1.994a6.256,6.256,0,0,1,.3-2.044,3.874,3.874,0,0,1,.846-1.439,3.367,3.367,0,0,1,1.3-.847,5.167,5.167,0,0,1,3.345,0,3.372,3.372,0,0,1,1.3.847,3.912,3.912,0,0,1,.85,1.439,6.185,6.185,0,0,1,.305,2.044Zm-2.738-2.317a5.222,5.222,0,0,0-.1-1.1,2.229,2.229,0,0,0-.276-.723,1.052,1.052,0,0,0-.436-.4,1.473,1.473,0,0,0-1.162,0,1.021,1.021,0,0,0-.431.4,2.178,2.178,0,0,0-.268.723,5.415,5.415,0,0,0-.094,1.1v2.623a5.564,5.564,0,0,0,.094,1.117,2.086,2.086,0,0,0,.272.723,1.055,1.055,0,0,0,.438.393,1.378,1.378,0,0,0,.586.12,1.328,1.328,0,0,0,.573-.12,1.052,1.052,0,0,0,.431-.393,2.088,2.088,0,0,0,.272-.723,5.569,5.569,0,0,0,.094-1.117Z" transform="translate(-409.104 -252.363)"/><path class="b" d="M37.959,14.851A17.736,17.736,0,0,1,20.341,37.817C10.05,37.669,1.545,29.372,1.4,19.326A17.849,17.849,0,0,1,19.817,1.371,19.421,19.421,0,0,1,35.583,9.885a2.8,2.8,0,0,1,1.295-.536A20.88,20.88,0,0,0,19.8,0,19.191,19.191,0,0,0,0,19.312C.157,30.119,9.285,39.027,20.354,39.186a19.076,19.076,0,0,0,18.878-24.92,2.8,2.8,0,0,1-1.274.585Z" transform="translate(0 11.068) rotate(-16)"/><path class="c" d="M3.635,7A3.664,3.664,0,0,1,0,3.448,3.426,3.426,0,0,1,3.538,0,3.664,3.664,0,0,1,7.172,3.549,3.429,3.429,0,0,1,3.635,7ZM3.557,1.379A2.077,2.077,0,0,0,1.413,3.47a2.222,2.222,0,0,0,2.2,2.15A2.077,2.077,0,0,0,5.762,3.53,2.223,2.223,0,0,0,3.557,1.379Z" transform="matrix(0.966, -0.259, 0.259, 0.966, 34.985, 9.819)"/></g></svg>