<svg xmlns="http://www.w3.org/2000/svg" width="235.197" height="45.8" viewBox="0 0 235.197 45.8">
  <g id="Group_10601" data-name="Group 10601" transform="translate(-978 -93.034)">
    <g id="Group_9870" data-name="Group 9870" transform="translate(-1.977)">
      <path id="Path_1939" data-name="Path 1939" d="M282.314,275.021h1.014a1.1,1.1,0,0,0,.86-.307,1.191,1.191,0,0,0,.281-.838,1.155,1.155,0,0,0-.066-.387.912.912,0,0,0-.195-.322.9.9,0,0,0-.331-.219,1.273,1.273,0,0,0-.473-.081,1.208,1.208,0,0,0-.375.059,1.115,1.115,0,0,0-.328.167.884.884,0,0,0-.235.262.693.693,0,0,0-.089.353H280.29a2.117,2.117,0,0,1,.247-1.031,2.363,2.363,0,0,1,.668-.771,3.106,3.106,0,0,1,.968-.483,3.924,3.924,0,0,1,1.154-.167,4.829,4.829,0,0,1,1.313.167,2.976,2.976,0,0,1,1.018.492,2.239,2.239,0,0,1,.656.8,2.5,2.5,0,0,1,.235,1.111,1.78,1.78,0,0,1-.1.593,2.062,2.062,0,0,1-.281.535,2.207,2.207,0,0,1-.439.456,3.026,3.026,0,0,1-.576.353,2.424,2.424,0,0,1,1.125.788,2.077,2.077,0,0,1,.409,1.313,2.419,2.419,0,0,1-.257,1.125,2.45,2.45,0,0,1-.709.835,3.248,3.248,0,0,1-1.067.517,4.847,4.847,0,0,1-1.334.176,4.255,4.255,0,0,1-.758-.068,3.941,3.941,0,0,1-.733-.2,3.216,3.216,0,0,1-.662-.35,2.357,2.357,0,0,1-.53-.512,2.409,2.409,0,0,1-.359-.665,2.455,2.455,0,0,1-.133-.835h2.1a.886.886,0,0,0,.094.4,1.065,1.065,0,0,0,.25.324,1.144,1.144,0,0,0,.368.217,1.259,1.259,0,0,0,.445.078,1.476,1.476,0,0,0,.511-.083,1.094,1.094,0,0,0,.381-.233,1,1,0,0,0,.235-.346,1.127,1.127,0,0,0,.08-.427,1.2,1.2,0,0,0-.34-.965,1.409,1.409,0,0,0-.937-.281h-1.018Z" transform="translate(905.994 -164.989)" fill="#2b3a44"/>
      <path id="Path_1941" data-name="Path 1941" d="M445.761,277.026a5.793,5.793,0,0,1-.239,1.762,3.4,3.4,0,0,1-.67,1.234,2.686,2.686,0,0,1-1.031.728,3.537,3.537,0,0,1-1.321.238,3.578,3.578,0,0,1-1.331-.238,2.677,2.677,0,0,1-1.035-.728,3.447,3.447,0,0,1-.674-1.234,5.728,5.728,0,0,1-.241-1.762v-1.714a5.8,5.8,0,0,1,.238-1.757,3.4,3.4,0,0,1,.671-1.237,2.659,2.659,0,0,1,1.031-.728,3.794,3.794,0,0,1,2.652,0,2.662,2.662,0,0,1,1.034.728,3.435,3.435,0,0,1,.674,1.237,5.736,5.736,0,0,1,.242,1.757Zm-2.17-1.992a4.857,4.857,0,0,0-.077-.944,2.017,2.017,0,0,0-.219-.622.864.864,0,0,0-.346-.342,1.084,1.084,0,0,0-.921,0,.839.839,0,0,0-.342.342,1.974,1.974,0,0,0-.213.622,5.045,5.045,0,0,0-.074.944v2.255a5.192,5.192,0,0,0,.074.961,1.892,1.892,0,0,0,.216.622.864.864,0,0,0,.348.338,1.019,1.019,0,0,0,.465.1.983.983,0,0,0,.454-.1.864.864,0,0,0,.342-.338,1.893,1.893,0,0,0,.216-.622,5.182,5.182,0,0,0,.074-.961Z" transform="translate(762.188 -165.076)" fill="#2b3a44"/>
      <path id="Path_1940" data-name="Path 1940" d="M365.915,271.27v1.657H365.8a3.807,3.807,0,0,0-1.019.132,2.691,2.691,0,0,0-.853.4,2.4,2.4,0,0,0-.635.663,2.486,2.486,0,0,0-.353.948,2.5,2.5,0,0,1,.766-.506,2.574,2.574,0,0,1,1.036-.194,2.447,2.447,0,0,1,1.107.241,2.344,2.344,0,0,1,.81.663,2.963,2.963,0,0,1,.5.991,4.311,4.311,0,0,1,.17,1.232,3.211,3.211,0,0,1-.238,1.242,3.007,3.007,0,0,1-1.667,1.657,3.34,3.34,0,0,1-1.279.241,3.548,3.548,0,0,1-1.335-.247,2.975,2.975,0,0,1-1.067-.719,3.317,3.317,0,0,1-.7-1.154,4.391,4.391,0,0,1-.254-1.545V276.2a5.6,5.6,0,0,1,.18-1.449,4.949,4.949,0,0,1,.5-1.213,4.36,4.36,0,0,1,.764-.967,4.541,4.541,0,0,1,.975-.711,4.859,4.859,0,0,1,1.137-.438,5.159,5.159,0,0,1,1.241-.15Zm-1.9,4.712a1.2,1.2,0,0,0-.7.19,1.221,1.221,0,0,0-.419.474v.632a2.246,2.246,0,0,0,.3,1.3,1.034,1.034,0,0,0,.892.423.909.909,0,0,0,.45-.116,1.136,1.136,0,0,0,.356-.319,1.579,1.579,0,0,0,.235-.478,2.209,2.209,0,0,0-.007-1.232,1.469,1.469,0,0,0-.25-.474,1.067,1.067,0,0,0-.379-.3A1.125,1.125,0,0,0,364.014,275.982Z" transform="translate(832.967 -165.001)" fill="#2b3a44"/>
      <path id="Path_1945" data-name="Path 1945" d="M271.917,166.631A16.382,16.382,0,0,1,272.51,171a15.416,15.416,0,1,1-15.4-15.919,15.285,15.285,0,0,1,12.909,7.243,2.316,2.316,0,0,1,1.075-.484,16.445,16.445,0,0,0-13.981-7.956c-9.136,0-16.569,7.683-16.569,17.127s7.427,17.116,16.56,17.116,16.568-7.683,16.568-17.127a17.586,17.586,0,0,0-.693-4.892A2.331,2.331,0,0,1,271.917,166.631Z" transform="translate(940.477 -60.346)" fill="#00eeae" stroke="#00eeae" stroke-width="1"/>
      <g id="Group_9869" data-name="Group 9869" transform="translate(979.977 93.097)">
        <path id="Path_9317" data-name="Path 9317" d="M111.333,24.012V38.56H105.6V25.024c0-3.78-1.9-6.014-5.374-6.014-3.442,0-5.678,2.467-5.678,6.688V38.542H88.822V14.325h5.73v3.265a8.551,8.551,0,0,1,7.415-3.849c5.926,0,9.368,3.885,9.368,10.271ZM76.419,38.56H82.15V14.325H76.419V38.56ZM196.437,4V38.578h5.712V4ZM184.018,38.56h5.73V4h-5.73ZM34.586,14.325h5.678v22.8c0,7.274-4.843,12.615-13.093,12.615a13.4,13.4,0,0,1-8.923-3.106l3.158-4.17a8.744,8.744,0,0,0,5.819,2.325c4.311,0,7.362-2.768,7.362-7.612V34.462a9.659,9.659,0,0,1-7.948,3.887C20.092,38.349,15,33.061,15,26.125c0-6.884,5.092-12.366,11.638-12.366a10.058,10.058,0,0,1,7.949,3.8v-3.23Zm.231,11.835a7.011,7.011,0,1,0-14.015,0,7.011,7.011,0,1,0,14.015,0Zm144.11.229c0,.445,0,1.172-.053,1.791H160.352c.426,3.763,3.387,6.158,7.326,6.158a8.879,8.879,0,0,0,5.766-2.094l2.858,3.92a14.09,14.09,0,0,1-8.782,3c-8.091,0-12.986-5.342-12.986-12.7s5.374-12.81,12.364-12.81C174.278,13.687,178.927,19.222,178.927,26.389Zm-18.574-2.324h12.719a6.006,6.006,0,0,0-6.333-5.535A6.131,6.131,0,0,0,160.352,24.065Zm-19.038,6.441-5.588-16.2h-4.311l-5.588,16.2-5.464-16.2H114.35l8.817,24.252h4.7l5.624-16.109,5.569,16.109h4.755L152.6,14.306H146.78l-5.466,16.2Z" transform="translate(-15 -4)" fill="#2b3a44"/>
        <path id="Path_9318" data-name="Path 9318" d="M34.651,10.572H58.458v24.2h-5.7V16.133H34.648v-5.56Zm0,20.02v4.16H38.81l8.514-8.85v-4.16H43.162l-8.514,8.85Z" transform="translate(-3.85 -0.271)" fill="#00eeae"/>
      </g>
      <g id="Ellipse_425" data-name="Ellipse 425" transform="translate(1208.089 100.948)" fill="#fff" stroke="#2b3a44" stroke-miterlimit="10" stroke-width="1">
        <ellipse cx="3.542" cy="3.542" rx="3.542" ry="3.542" stroke="none"/>
        <ellipse cx="3.542" cy="3.542" rx="3.042" ry="3.042" fill="none"/>
      </g>
    </g>
  </g>
</svg>
