<svg xmlns="http://www.w3.org/2000/svg" width="140.894" height="34.032" viewBox="0 0 140.894 34.032"><defs><style>.a{fill:#2b3a44;}.b{fill:#00eeae;}</style></defs><path class="a" d="M143.787,70.386V81.21h-4.31V71.142c0-2.819-1.422-4.447-4.049-4.447s-4.274,1.841-4.274,4.981V81.21h-4.337V63.164h4.3v2.428a6.456,6.456,0,0,1,5.6-2.864C141.213,62.729,143.787,65.619,143.787,70.386ZM117.5,81.21h4.31V63.164H117.5Zm90.351-25.73V81.21h4.31V55.48Zm-9.34,25.73h4.3V55.48h-4.3ZM86.036,63.164H90.3V80.125c0,5.416-3.6,9.383-9.853,9.383A10.17,10.17,0,0,1,73.727,87.2l2.376-3.1a6.6,6.6,0,0,0,4.382,1.734c3.248,0,5.552-2.055,5.552-5.665V78.178a7.33,7.33,0,0,1-6.011,2.846,8.787,8.787,0,0,1-8.755-9.09,8.876,8.876,0,0,1,8.755-9.205,7.629,7.629,0,0,1,5.993,2.828Zm.18,8.805a5.3,5.3,0,1,0-1.51,3.741,5.179,5.179,0,0,0,1.474-3.759Zm108.5.178v1.334H180.769c.315,2.811,2.547,4.589,5.507,4.589a6.788,6.788,0,0,0,4.346-1.556l2.16,2.926a10.743,10.743,0,0,1-6.614,2.232c-6.092,0-9.781-3.967-9.781-9.454a9.208,9.208,0,0,1,9.313-9.526c5.471,0,8.98,4.118,8.98,9.454Zm-13.983-1.725h9.583a4.482,4.482,0,0,0-4.769-4.118,4.59,4.59,0,0,0-4.85,4.118Zm-14.325,4.794L162.2,63.164h-3.248L154.71,75.216l-4.1-12.051h-4.5l6.641,18.046h3.545l4.229-12,4.2,12h3.6l6.614-18.046h-4.382Z" transform="translate(-71.27 -55.48)"/><path class="b" d="M97.09,64.12h18V82.166h-4.31V68.274H97.09Zm0,14.942v3.1h3.14l6.425-6.59V72.454h-3.14Z" transform="translate(-73.857 -56.436)"/></svg>