<?xml version="1.0" standalone="no"?>
<!DOCTYPE svg PUBLIC "-//W3C//DTD SVG 20010904//EN"
 "http://www.w3.org/TR/2001/REC-SVG-20010904/DTD/svg10.dtd">
<svg version="1.0" xmlns="http://www.w3.org/2000/svg"
 width="300.000000pt" height="163.000000pt" viewBox="0 0 300.000000 163.000000"
 preserveAspectRatio="xMidYMid meet">
<metadata>
Created by potrace 1.10, written by Peter Selinger 2001-2011
</metadata>
<g transform="translate(0.000000,163.000000) scale(0.100000,-0.100000)"
fill="#000000" stroke="none">
<path d="M380 1563 c0 -30 25 -91 48 -116 16 -18 15 -20 -17 -48 -32 -26 -36
-27 -52 -13 -10 9 -24 13 -31 9 -7 -3 -4 1 6 9 11 9 24 16 29 16 4 0 15 6 23
14 11 12 12 20 3 40 -7 14 -16 23 -22 19 -5 -3 -7 4 -3 18 6 21 6 22 -5 5 -6
-10 -11 -36 -11 -57 1 -22 -3 -39 -9 -39 -5 0 -9 7 -9 15 0 8 -6 12 -13 9 -9
-3 -12 -16 -9 -35 3 -20 9 -28 18 -25 22 8 26 -11 9 -50 -8 -20 -12 -41 -8
-47 4 -6 0 -8 -10 -4 -12 4 -22 -2 -34 -21 -36 -55 -53 -65 -54 -29 l0 22 -10
-24 c-5 -13 -15 -21 -22 -18 -8 3 -14 -4 -15 -16 -1 -17 1 -19 8 -7 5 8 10 11
10 6 0 -5 6 -4 13 2 8 7 18 7 27 2 13 -9 13 -10 0 -10 -13 0 -13 -2 -1 -9 9
-6 11 -15 6 -27 -5 -11 -7 -23 -6 -29 1 -5 -7 -1 -18 9 -11 10 -17 24 -14 34
5 11 2 14 -10 9 -27 -10 -41 26 -18 47 10 9 21 13 25 9 4 -4 4 0 0 10 -3 10
-1 17 5 17 6 0 11 8 12 18 0 15 1 15 8 -2 5 -12 8 1 9 39 1 31 6 63 11 69 10
12 4 56 -8 56 -20 -1 -59 -58 -67 -97 -1 -6 -7 -27 -12 -45 -19 -65 -10 -120
28 -168 30 -38 35 -51 33 -91 -2 -34 2 -49 13 -53 8 -3 12 -10 9 -16 -3 -5 -1
-10 5 -10 7 0 9 12 6 34 -3 19 3 67 13 107 16 63 23 75 51 90 38 21 53 35 26
25 -17 -6 -17 -5 -5 10 13 16 12 16 -6 7 -11 -6 -29 -21 -39 -32 -19 -21 -53
-30 -41 -11 4 6 12 7 18 4 7 -4 9 -4 5 1 -10 11 10 45 27 45 7 0 26 25 40 55
23 46 32 55 54 55 19 0 22 3 12 9 -19 12 73 6 127 -8 38 -11 66 -26 164 -89
32 -20 46 -49 57 -118 7 -39 9 -43 10 -16 0 17 5 32 10 32 5 0 14 12 20 28 7
15 19 39 27 54 24 44 -6 108 -32 66 -4 -7 -3 -8 4 -4 17 10 35 -31 23 -52 -9
-14 -10 -11 -11 16 0 18 -4 31 -9 28 -13 -8 -34 21 -28 38 4 11 1 13 -11 9
-15 -6 -16 -5 -2 12 9 11 10 16 3 11 -9 -5 -13 -1 -13 13 0 32 -15 32 -51 0
-28 -26 -29 -28 -7 -15 36 21 48 20 48 -5 0 -13 -4 -18 -12 -13 -7 4 -8 3 -4
-4 4 -7 2 -12 -5 -12 -7 0 -9 -3 -6 -6 4 -4 13 -1 22 6 8 7 15 8 15 3 0 -6 11
-22 24 -36 32 -34 38 -79 13 -83 -11 -1 -16 0 -13 3 3 4 -4 11 -17 17 -12 7
-22 19 -22 27 0 25 -27 51 -46 46 -19 -5 -22 12 -4 25 6 5 3 8 -7 8 -9 0 -18
-6 -20 -14 -3 -13 -6 -13 -23 0 -17 13 -18 16 -5 24 8 5 11 10 5 11 -15 2 -48
6 -68 7 -10 1 -15 6 -12 12 5 9 -15 11 -97 10 -32 0 -33 2 -16 33 26 50 28 58
23 67 -12 20 5 46 30 46 14 0 24 -5 22 -10 -2 -6 -14 -10 -25 -8 -23 3 -26 -5
-16 -32 8 -22 21 -20 27 5 7 26 40 22 47 -6 7 -24 51 -28 58 -5 5 13 3 13 -11
1 -14 -11 -17 -11 -17 0 0 11 -3 11 -11 -1 -9 -13 -10 -13 -6 0 2 8 9 15 15
15 6 0 17 6 24 13 15 15 32 16 22 0 -5 -8 4 -9 33 -5 30 5 44 3 53 -8 14 -17
30 -20 30 -5 0 13 -61 51 -72 44 -4 -3 -25 -7 -45 -9 -21 -2 -47 -5 -58 -7
-23 -3 -28 23 -6 30 8 3 11 0 7 -6 -4 -6 2 -8 16 -4 21 5 21 6 2 13 -16 7 -17
8 -1 8 9 1 17 7 17 14 0 8 4 7 10 -3 5 -8 10 -12 10 -8 0 4 12 3 26 -2 35 -14
21 5 -15 20 -25 10 -34 9 -53 -4 -28 -20 -50 -21 -24 -1 19 14 18 15 -11 15
-36 0 -80 -40 -89 -79 -15 -68 -16 -68 -40 -17 -16 34 -20 55 -14 71 6 16 5
22 -6 22 -8 0 -14 -10 -14 -24z m155 0 c-2 -10 -4 -20 -4 -23 -1 -3 -6 2 -11
10 -5 8 -10 10 -10 4 0 -6 -7 -11 -17 -11 -13 0 -11 4 7 19 28 23 39 23 35 1z
m-162 -118 c-3 -9 -8 -14 -10 -11 -3 3 -2 9 2 15 9 16 15 13 8 -4z m-143 -97
c-7 -47 -21 -78 -44 -97 -14 -12 -15 -4 -7 49 1 3 5 -1 10 -9 6 -9 11 0 16 30
4 24 12 50 17 57 7 8 7 12 -1 12 -6 0 -11 5 -11 11 0 8 4 9 13 0 10 -8 12 -23
7 -53z m-35 -18 c-4 -12 -9 -19 -12 -17 -3 3 -2 15 2 27 4 12 9 19 12 17 3 -3
2 -15 -2 -27z m519 -46 c4 -10 1 -14 -6 -12 -15 5 -23 28 -10 28 5 0 13 -7 16
-16z"/>
<path d="M411 1540 c0 -14 6 -36 14 -50 18 -32 18 -26 1 30 -11 32 -15 38 -15
20z"/>
<path d="M617 1485 c3 -8 9 -12 14 -9 12 7 11 11 -5 17 -10 4 -13 1 -9 -8z"/>
<path d="M527 1470 c-3 -11 -1 -20 4 -20 5 0 9 9 9 20 0 11 -2 20 -4 20 -2 0
-6 -9 -9 -20z"/>
<path d="M645 1470 c-10 -11 -21 -18 -24 -15 -4 2 -13 -1 -21 -6 -11 -6 -5 -8
18 -4 24 4 32 2 26 -6 -4 -8 -3 -9 4 -5 7 4 12 3 12 -3 0 -6 8 -7 18 -4 15 6
15 5 3 -11 -8 -9 -20 -15 -27 -12 -14 6 -27 -7 -17 -17 3 -4 15 -1 27 5 11 7
26 12 31 13 24 1 55 17 50 26 -4 5 -11 9 -16 9 -6 0 -7 -5 -3 -12 5 -7 3 -8
-7 -2 -8 4 -23 10 -34 11 -32 5 -43 23 -14 24 31 2 31 2 54 -7 19 -7 19 -6 3
12 -23 26 -61 28 -83 4z"/>
<path d="M278 1466 c-34 -12 -35 -18 -3 -53 l26 -28 -3 27 c-2 14 5 35 15 45
19 22 8 25 -35 9z m20 -13 c-9 -10 -13 -25 -11 -33 2 -9 0 -8 -7 3 -10 15 -8
21 7 32 25 20 29 18 11 -2z"/>
<path d="M470 1445 c0 -9 6 -12 15 -9 8 4 15 10 15 15 0 5 -7 9 -15 9 -8 0
-15 -7 -15 -15z"/>
<path d="M386 1415 c-11 -8 -15 -15 -10 -15 6 0 19 7 30 15 10 8 15 14 9 14
-5 0 -19 -6 -29 -14z"/>
<path d="M788 1366 c9 -20 20 -36 24 -36 11 0 -16 63 -29 67 -7 3 -5 -10 5
-31z"/>
<path d="M260 1366 c-15 -42 -11 -55 6 -17 8 19 12 36 9 39 -2 3 -9 -7 -15
-22z"/>
<path d="M286 1348 c-19 -27 -20 -44 -4 -54 8 -5 9 0 6 14 -4 12 -2 24 2 27 5
3 10 -3 12 -12 3 -16 5 -15 16 4 11 19 10 22 -3 17 -8 -4 -15 -2 -15 4 0 6 6
13 13 15 9 4 9 6 0 6 -6 1 -19 -9 -27 -21z"/>
<path d="M425 1340 c-3 -6 1 -7 9 -4 18 7 21 14 7 14 -6 0 -13 -4 -16 -10z"/>
<path d="M737 1303 c-4 -7 -3 -14 3 -18 6 -4 8 -10 5 -15 -3 -5 3 -14 14 -19
15 -8 19 -8 17 3 -3 25 -32 60 -39 49z"/>
<path d="M250 1275 c0 -8 4 -15 10 -15 5 0 7 7 4 15 -4 8 -8 15 -10 15 -2 0
-4 -7 -4 -15z"/>
<path d="M445 1280 c-3 -5 -1 -10 4 -10 6 0 11 5 11 10 0 6 -2 10 -4 10 -3 0
-8 -4 -11 -10z"/>
<path d="M415 1200 c3 -5 8 -10 11 -10 2 0 4 5 4 10 0 6 -5 10 -11 10 -5 0 -7
-4 -4 -10z"/>
<path d="M450 1200 c0 -5 5 -10 11 -10 5 0 7 5 4 10 -3 6 -8 10 -11 10 -2 0
-4 -4 -4 -10z"/>
<path d="M470 1180 c-13 -8 -13 -10 2 -10 9 0 20 5 23 10 8 13 -5 13 -25 0z"/>
<path d="M130 1131 c-24 -45 -4 -160 32 -185 12 -9 23 -14 24 -13 1 1 -1 18
-6 37 -4 19 -8 29 -9 23 -1 -7 -6 -13 -11 -13 -6 0 -10 6 -9 13 1 6 -4 24 -11
40 -12 24 -11 32 3 63 9 19 17 39 17 44 0 17 -19 11 -30 -9z"/>
<path d="M380 1130 c-11 -7 -6 -10 22 -10 21 0 61 -9 89 -20 28 -12 54 -19 56
-16 3 3 12 -2 21 -10 12 -12 17 -13 23 -3 23 37 -164 89 -211 59z"/>
<path d="M170 1122 c0 -4 5 -13 11 -19 15 -15 -9 -42 -30 -35 -10 3 -12 0 -8
-12 4 -10 7 -22 7 -27 0 -5 5 -9 11 -9 5 0 7 5 4 10 -3 6 2 13 12 17 28 10 33
25 17 55 -14 28 -24 36 -24 20z"/>
<path d="M345 1090 c-3 -5 -3 -10 2 -10 4 0 1 -4 -7 -10 -9 -6 -20 -5 -30 3
-13 10 -13 10 -1 -5 9 -12 18 -15 29 -9 19 11 50 3 72 -19 10 -10 41 -21 70
-25 55 -8 81 0 34 10 -16 3 -47 11 -69 17 -37 10 -38 12 -15 18 14 4 31 3 37
-3 7 -5 21 -6 30 -3 10 4 14 4 10 0 -4 -4 5 -13 19 -21 33 -16 37 -16 31 0 -4
10 3 12 23 9 15 -2 30 1 34 6 4 7 -12 9 -44 7 -30 -1 -48 1 -47 8 3 15 -71 29
-116 22 -25 -3 -36 -2 -32 5 3 5 -1 10 -9 10 -8 0 -18 -4 -21 -10z"/>
<path d="M2908 1089 c-10 -6 -18 -14 -18 -20 0 -5 8 -9 18 -7 10 2 17 -3 17
-12 0 -17 -36 -15 -69 2 -15 8 -16 12 -5 19 11 7 10 9 -3 9 -21 0 -24 -23 -5
-38 6 -5 23 -12 37 -14 20 -2 25 -9 26 -33 1 -44 12 -62 46 -74 41 -14 48 -14
48 3 0 10 -9 13 -29 10 -36 -6 -58 24 -41 55 5 11 7 27 4 35 -4 9 -1 16 6 16
9 0 9 4 2 13 -5 6 -11 20 -13 29 -3 13 -8 15 -21 7z"/>
<path d="M687 1069 c-9 -6 -15 -14 -12 -18 2 -5 -4 -11 -15 -14 -12 -3 -20
-14 -20 -26 0 -21 24 -39 69 -51 20 -5 28 -15 33 -41 l6 -34 -1 35 c-2 31 -8
38 -52 62 -27 15 -48 28 -45 29 20 6 49 5 44 -2 -3 -5 2 -9 10 -9 8 0 22 -7
30 -16 14 -14 16 -14 16 0 0 15 -8 25 -45 51 -17 12 -18 14 -3 15 9 0 28 -4
42 -10 27 -10 35 0 14 18 -22 17 -52 22 -71 11z"/>
<path d="M2992 1030 c0 -14 2 -19 5 -12 2 6 2 18 0 25 -3 6 -5 1 -5 -13z"/>
<path d="M340 1029 c0 -5 5 -7 10 -4 6 3 10 8 10 11 0 2 -4 4 -10 4 -5 0 -10
-5 -10 -11z"/>
<path d="M556 1009 c-11 -10 -17 -21 -15 -24 7 -6 49 24 49 36 0 14 -13 10
-34 -12z"/>
<path d="M374 1009 c-3 -5 6 -9 20 -9 31 0 34 6 6 13 -11 3 -23 1 -26 -4z"/>
<path d="M2846 1005 c-3 -8 -1 -15 4 -15 6 0 10 7 10 15 0 8 -2 15 -4 15 -2 0
-6 -7 -10 -15z"/>
<path d="M193 936 c-2 -115 -18 -181 -54 -225 -26 -33 -29 -42 -19 -58 10 -16
11 -16 6 0 -6 19 27 60 40 49 4 -4 4 -2 0 5 -3 6 -2 14 4 18 5 3 10 15 10 25
0 14 5 18 18 13 14 -5 15 -3 5 8 -15 16 -17 59 -3 59 6 0 10 -12 11 -27 0 -16
2 -44 5 -63 3 -25 1 -31 -6 -20 -15 23 -12 2 4 -23 20 -32 30 -81 15 -71 -7 4
-5 -3 4 -16 11 -16 13 -28 7 -40 -10 -19 -2 -60 11 -60 5 0 9 -7 9 -16 0 -8
-4 -13 -9 -10 -5 4 -1 -12 10 -33 30 -62 36 -55 21 24 -11 54 -18 72 -28 68
-8 -3 -14 0 -14 7 0 6 5 8 10 5 6 -3 10 -1 10 6 0 21 -30 199 -47 277 -9 40
-14 75 -11 78 4 3 9 -13 13 -35 4 -23 10 -39 13 -37 4 2 8 -19 10 -47 1 -27 7
-56 13 -63 6 -8 9 -20 6 -27 -2 -7 1 -44 8 -82 25 -134 45 -228 50 -233 8 -9
-1 80 -10 102 -6 13 -4 21 4 24 8 3 6 8 -6 18 -17 13 -17 14 2 11 11 -1 26 -6
34 -11 9 -6 12 -5 9 5 -2 8 -17 15 -31 17 -29 4 -35 20 -14 42 10 12 9 12 -4
2 -15 -11 -17 -8 -21 27 -2 29 1 42 11 46 13 5 13 7 1 15 -8 5 -11 12 -7 16 4
4 15 0 25 -9 14 -15 15 -19 3 -26 -8 -5 -9 -11 -3 -15 5 -3 12 0 15 8 9 24 1
49 -16 52 -9 1 -23 9 -32 17 -16 17 -20 28 -7 26 25 -4 32 2 23 20 -6 10 -7
22 -3 26 4 4 -2 5 -13 3 -12 -2 -21 3 -23 16 -3 13 0 16 10 10 10 -6 11 -5 1
8 -7 8 -9 18 -5 22 4 4 2 6 -4 4 -7 -1 -12 0 -13 5 -3 21 0 28 9 22 6 -3 10 0
10 7 1 7 6 3 13 -10 7 -12 17 -19 22 -15 4 4 5 0 2 -10 -4 -11 -3 -16 3 -12
16 10 7 39 -14 50 -11 6 -21 16 -24 24 -3 8 0 11 7 7 6 -4 11 -2 11 3 0 6 -9
11 -20 11 -17 0 -19 -3 -11 -19 8 -15 7 -20 -7 -23 -15 -4 -18 1 -16 31 0 21
-6 43 -15 53 -15 15 -16 10 -18 -56z m87 -163 c0 -13 -3 -13 -15 -3 -8 7 -15
16 -15 21 0 5 7 6 15 3 8 -4 15 -13 15 -21z"/>
<path d="M2815 990 c-3 -5 -1 -10 4 -10 6 0 11 5 11 10 0 6 -2 10 -4 10 -3 0
-8 -4 -11 -10z"/>
<path d="M2124 965 c-10 -8 -27 -15 -38 -15 -14 0 -17 -6 -14 -25 7 -35 -9
-43 -79 -40 -54 2 -62 0 -67 -17 -4 -18 -10 -20 -43 -14 l-38 6 33 -17 c29
-15 33 -15 45 -1 15 20 67 33 67 17 0 -8 4 -9 13 0 8 6 17 8 20 5 4 -4 20 -1
36 6 24 9 38 9 68 -1 21 -7 50 -12 66 -10 20 2 27 -2 27 -15 0 -9 3 -14 7 -11
3 4 12 2 20 -4 18 -16 16 2 -3 30 -13 18 -24 22 -49 19 -29 -3 -32 -2 -24 13
13 25 11 37 -4 18 -19 -24 -45 -30 -62 -13 -22 22 -19 33 15 52 16 9 30 20 30
25 0 10 -3 9 -26 -8z"/>
<path d="M2700 965 c-21 -12 -22 -14 -6 -15 15 0 16 -3 6 -15 -7 -9 -10 -18
-7 -21 3 -3 13 8 21 24 9 17 21 32 28 35 9 4 8 6 -2 6 -8 0 -26 -6 -40 -14z"/>
<path d="M456 925 c-71 -53 -78 -63 -73 -110 3 -19 0 -38 -4 -41 -5 -3 -5 -13
0 -22 4 -9 7 -22 4 -28 -3 -9 28 -11 47 -4 3 1 8 2 13 1 12 -2 8 6 -10 20 -11
10 -14 10 -9 2 4 -8 2 -13 -6 -13 -9 0 -13 16 -14 56 0 52 1 54 15 36 26 -32
57 -46 136 -62 22 -4 34 -8 26 -9 -8 0 -12 -4 -9 -7 7 -7 46 13 66 33 29 28
24 2 -9 -49 -19 -29 -33 -56 -31 -61 1 -5 -2 -6 -7 -3 -11 7 -24 -22 -15 -35
3 -5 10 -6 16 -3 6 4 9 1 6 -7 -6 -17 -68 -19 -68 -2 0 7 -7 13 -15 13 -8 0
-15 -7 -15 -16 0 -11 -7 -14 -31 -10 -37 5 -40 8 -42 34 0 11 -5 18 -9 16 -5
-3 -5 -10 -2 -16 5 -7 2 -8 -5 -4 -7 5 -10 13 -8 20 3 7 -5 13 -19 14 -13 1
-24 -3 -24 -8 0 -6 7 -10 15 -10 9 0 12 -6 8 -16 -4 -11 -8 -12 -13 -4 -4 7
-10 8 -13 3 -7 -12 44 -57 69 -61 18 -3 18 -3 -1 13 -19 16 -19 16 6 2 27 -16
113 -13 137 6 9 7 12 -1 12 -35 0 -56 -40 -116 -108 -159 -40 -26 -55 -30
-100 -27 -43 2 -51 1 -45 -12 26 -57 85 -255 90 -301 5 -51 8 -57 29 -57 25 0
37 26 48 106 9 59 34 106 95 175 64 73 80 104 86 164 2 26 7 71 11 99 6 50 5
51 -25 63 -56 24 -58 36 -13 85 45 49 64 80 55 90 -3 3 -7 18 -9 33 -8 79 -12
96 -29 111 -17 16 -17 16 -10 -3 4 -11 8 -36 9 -57 0 -20 4 -34 8 -32 5 3 8
-2 8 -10 0 -27 -47 -29 -135 -7 -46 11 -92 21 -100 21 -9 0 -24 7 -33 17 -15
15 -14 15 23 8 22 -5 54 -9 72 -9 17 0 31 -5 30 -10 -3 -12 67 -27 71 -15 4
11 23 12 20 2 -2 -5 0 -9 5 -10 4 -2 7 -1 7 2 0 3 0 12 0 20 0 15 -45 22 -53
8 -2 -5 -2 -2 -1 5 2 6 -13 20 -34 30 -38 17 -52 46 -33 65 7 7 16 3 30 -14
12 -14 20 -18 21 -11 0 17 -25 42 -42 42 -7 0 -40 -20 -72 -45z m60 -57 c-6
-4 -13 -2 -17 4 -4 6 -11 8 -15 5 -5 -3 -17 1 -27 8 -18 13 -17 14 9 28 27 14
29 14 45 -12 11 -18 13 -28 5 -33z m-15 -56 c15 -6 29 -8 32 -5 3 3 12 1 19
-3 7 -5 22 -9 32 -9 11 0 21 -6 24 -12 2 -9 -9 -13 -37 -13 -23 0 -41 4 -41
10 0 5 -7 7 -15 4 -8 -4 -15 -1 -15 6 0 6 -4 8 -10 5 -11 -7 -50 12 -50 25 0
10 22 7 61 -8z m183 -58 c-21 -31 -28 -26 -14 10 5 15 14 24 20 21 6 -4 4 -16
-6 -31z m-15 -170 c4 3 6 -6 3 -19 -2 -15 -9 -22 -16 -18 -6 4 -5 -1 3 -10 18
-23 7 -33 -22 -20 -19 9 -23 17 -19 46 4 39 -13 81 -30 71 -7 -5 -8 -2 -3 6 6
10 17 4 42 -24 19 -20 38 -34 42 -32z m-9 -112 c0 -7 -3 -11 -7 -9 -5 3 -8
-14 -8 -36 0 -44 -24 -85 -93 -157 -43 -44 -66 -97 -82 -182 -12 -69 -30 -92
-30 -39 0 16 -9 59 -21 96 -11 37 -21 75 -22 86 -1 10 -5 19 -10 19 -4 0 -5 4
-2 10 3 5 -1 20 -10 34 l-16 24 50 7 c72 10 135 54 179 124 31 51 38 57 54 47
10 -6 18 -17 18 -24z m-97 -42 c-20 -34 -78 -78 -111 -85 -32 -6 -27 0 21 28
23 14 55 39 71 56 37 39 42 39 19 1z m-148 -90 c-3 -5 -16 -10 -28 -9 -20 1
-20 2 3 9 14 4 26 8 28 9 2 1 0 -3 -3 -9z"/>
<path d="M586 961 c-4 -7 -5 -15 -2 -18 9 -9 19 4 14 18 -4 11 -6 11 -12 0z"/>
<path d="M2650 955 c0 -8 2 -15 4 -15 2 0 6 7 10 15 3 8 1 15 -4 15 -6 0 -10
-7 -10 -15z"/>
<path d="M590 920 c0 -5 5 -10 10 -10 6 0 10 5 10 10 0 6 -4 10 -10 10 -5 0
-10 -4 -10 -10z"/>
<path d="M324 863 c2 -33 -1 -43 -13 -44 -12 0 -11 -2 3 -8 14 -5 16 -10 8
-15 -7 -4 -12 -12 -12 -19 0 -6 7 -1 16 11 19 28 25 119 8 119 -9 0 -12 -15
-10 -44z"/>
<path d="M1596 902 c-4 -7 -19 -9 -36 -5 -22 4 -30 2 -30 -9 0 -26 -88 -55
-161 -53 -36 1 -74 7 -85 12 -25 13 -182 9 -196 -5 -7 -7 19 -9 85 -6 72 2 99
0 113 -11 18 -15 18 -16 -5 -35 -13 -11 -21 -23 -18 -26 6 -6 47 36 47 48 0
11 67 10 89 -2 10 -5 59 -12 109 -16 75 -6 92 -10 92 -23 0 -13 2 -13 9 -3 7
11 9 11 14 -2 4 -9 13 -16 22 -16 20 0 19 18 -2 22 -15 3 -15 4 0 20 13 12 14
18 4 22 -6 3 2 4 18 1 102 -15 106 -15 111 0 4 8 10 12 15 9 5 -3 6 2 3 10 -3
9 -11 13 -18 9 -6 -4 -23 -6 -38 -4 -15 1 -33 -1 -40 -5 -7 -5 -25 -7 -40 -5
-17 1 -28 -2 -28 -9 0 -7 -6 -10 -12 -7 -7 2 -22 1 -33 -3 -25 -9 -75 8 -75
25 0 27 102 40 153 20 12 -5 17 -3 15 6 -4 19 -19 29 -45 29 -12 0 -23 5 -25
12 -3 9 -6 9 -12 0z"/>
<path d="M2625 894 c-20 -15 -12 -17 19 -5 11 4 15 10 10 13 -5 4 -18 0 -29
-8z"/>
<path d="M2360 885 c0 -7 -5 -15 -10 -17 -6 -2 -1 -9 11 -16 13 -8 18 -9 14
-2 -4 6 1 17 10 24 17 12 17 13 -4 19 -14 3 -21 1 -21 -8z"/>
<path d="M2456 875 c-4 -12 -2 -14 11 -6 12 6 21 5 30 -7 11 -15 12 -15 13 6
0 17 -6 22 -24 22 -13 0 -27 -7 -30 -15z"/>
<path d="M2565 880 c-8 -13 5 -13 25 0 13 8 13 10 -2 10 -9 0 -20 -4 -23 -10z"/>
<path d="M2889 871 c6 -10 9 -20 8 -22 -1 -2 0 -3 2 -1 11 7 6 42 -6 42 -10 0
-11 -5 -4 -19z"/>
<path d="M797 874 c-4 -4 -7 -14 -7 -22 0 -11 3 -12 14 -2 12 9 37 9 108 0 51
-6 101 -13 112 -16 12 -4 16 -2 12 5 -4 6 -15 11 -24 11 -9 0 -28 6 -42 13
-28 14 -161 23 -173 11z"/>
<path d="M2730 870 c-9 -6 -10 -10 -3 -10 6 0 15 5 18 10 8 12 4 12 -15 0z"/>
<path d="M716 844 c-4 -9 -4 -19 -1 -22 2 -3 7 3 11 12 4 9 4 19 1 22 -2 3 -7
-3 -11 -12z"/>
<path d="M2300 844 c0 -8 5 -12 10 -9 6 3 10 10 10 16 0 5 -4 9 -10 9 -5 0
-10 -7 -10 -16z"/>
<path d="M2611 849 c-1 -13 9 -17 39 -17 26 -1 38 3 34 10 -4 5 -19 7 -35 4
-17 -3 -29 -1 -33 7 -2 7 -5 5 -5 -4z"/>
<path d="M2147 843 c-4 -3 -7 -11 -7 -17 0 -6 5 -5 12 2 6 6 9 14 7 17 -3 3
-9 2 -12 -2z"/>
<path d="M2177 844 c-4 -4 8 -14 25 -23 33 -17 44 -50 27 -83 -7 -13 -5 -16 9
-15 14 1 17 7 14 29 -5 32 0 35 23 11 14 -14 18 -14 26 -2 14 22 4 34 -25 31
-20 -2 -29 3 -36 20 -5 13 -9 20 -9 15 -1 -4 -11 -1 -24 8 -13 8 -26 12 -30 9z"/>
<path d="M2470 830 c0 -5 5 -10 11 -10 5 0 7 5 4 10 -3 6 -8 10 -11 10 -2 0
-4 -4 -4 -10z"/>
<path d="M2710 825 c-7 -8 -10 -28 -8 -44 5 -37 -22 -57 -53 -40 -12 6 -34 9
-51 7 -16 -3 -31 -1 -34 3 -2 5 -12 5 -21 2 -15 -6 -14 -7 3 -15 18 -8 18 -8
-1 -5 -11 1 -20 7 -20 12 0 6 -4 17 -10 25 -7 12 -6 13 6 3 8 -7 20 -8 28 -4
15 10 4 20 -28 26 -16 3 -19 -1 -15 -20 3 -15 -2 -25 -13 -30 -35 -13 10 -24
107 -25 52 -1 100 -1 106 -1 7 1 10 15 7 35 -2 19 1 46 7 60 11 29 8 33 -10
11z"/>
<path d="M1819 817 c17 -21 8 -45 -21 -56 -20 -8 -21 -10 -5 -16 9 -4 33 -4
53 -1 31 6 35 10 32 34 -2 15 -7 27 -13 27 -5 1 -21 7 -35 14 -23 13 -24 13
-11 -2z"/>
<path d="M2759 806 c15 -17 4 -63 -17 -75 -24 -13 26 -20 151 -19 73 0 107 4
107 12 0 7 -18 11 -46 11 -37 0 -48 4 -50 18 -1 9 2 17 8 17 5 0 8 5 6 11 -5
16 -21 12 -24 -7 -2 -9 -10 -24 -18 -32 -22 -23 -91 -5 -92 23 -2 38 -4 43
-20 49 -14 5 -15 4 -5 -8z"/>
<path d="M2962 809 c2 -6 8 -10 13 -10 5 0 11 4 13 10 2 6 -4 11 -13 11 -9 0
-15 -5 -13 -11z"/>
<path d="M15 800 c-11 -18 24 -23 40 -6 15 15 14 16 -9 16 -14 0 -28 -5 -31
-10z"/>
<path d="M130 800 c0 -6 7 -10 15 -10 8 0 15 2 15 4 0 2 -7 6 -15 10 -8 3 -15
1 -15 -4z"/>
<path d="M346 801 c-4 -6 -4 -15 -1 -21 3 -5 0 -10 -7 -10 -9 0 -9 -3 2 -10
10 -6 17 -5 23 5 10 18 -7 53 -17 36z"/>
<path d="M2118 798 c-3 -7 -20 -12 -39 -11 -19 0 -24 -1 -12 -4 12 -2 25 -13
28 -23 6 -19 42 -37 52 -26 4 3 12 1 20 -6 22 -18 24 -3 3 20 -11 12 -20 24
-20 27 0 4 -6 13 -14 21 -11 10 -15 11 -18 2z"/>
<path d="M2400 798 c0 -18 18 -34 28 -24 3 4 -2 14 -11 23 -16 16 -17 16 -17
1z"/>
<path d="M1962 788 c-7 -7 -12 -9 -12 -5 0 4 -13 1 -30 -8 -29 -15 -40 -35
-20 -35 6 0 10 5 10 10 0 6 11 10 25 10 14 0 25 -4 25 -10 0 -5 4 -10 10 -10
6 0 11 60 5 60 -1 0 -6 -5 -13 -12z"/>
<path d="M730 780 c0 -5 14 -10 30 -10 17 0 30 4 30 8 0 4 -13 9 -30 10 -16 1
-30 -2 -30 -8z"/>
<path d="M800 778 c0 -4 21 -8 48 -8 33 0 43 3 32 10 -18 11 -80 10 -80 -2z"/>
<path d="M910 780 c-11 -7 -3 -10 30 -9 34 0 40 2 25 9 -27 12 -37 12 -55 0z"/>
<path d="M1050 781 c-40 -4 -55 -8 -40 -11 14 -3 57 -2 95 1 39 3 62 6 53 7
-9 1 -22 3 -30 5 -7 2 -42 1 -78 -2z"/>
<path d="M1186 775 c-3 -8 4 -12 20 -11 29 1 32 12 5 19 -11 3 -22 -1 -25 -8z"/>
<path d="M1330 780 c0 -5 5 -10 10 -10 6 0 10 5 10 10 0 6 -4 10 -10 10 -5 0
-10 -4 -10 -10z"/>
<path d="M2028 764 c3 -15 8 -22 14 -16 9 9 1 42 -12 42 -4 0 -5 -12 -2 -26z"/>
<path d="M1679 759 c-9 -6 1 -9 34 -9 26 0 47 3 47 8 0 10 -64 12 -81 1z"/>
<path d="M2385 760 c3 -5 8 -10 11 -10 2 0 4 5 4 10 0 6 -5 10 -11 10 -5 0 -7
-4 -4 -10z"/>
<path d="M2978 753 c7 -3 16 -2 19 1 4 3 -2 6 -13 5 -11 0 -14 -3 -6 -6z"/>
<path d="M347 722 c10 -7 18 -17 18 -22 0 -4 4 -12 9 -17 5 -5 6 2 3 17 -4 14
-7 28 -7 32 0 4 -9 6 -21 5 -19 -1 -19 -2 -2 -15z"/>
<path d="M469 712 c6 -11 23 -25 40 -31 24 -10 34 -10 58 3 l28 15 -38 1 c-21
0 -52 7 -68 16 -29 15 -30 14 -20 -4z"/>
<path d="M508 718 c5 -5 16 -8 23 -6 8 3 3 7 -10 11 -17 4 -21 3 -13 -5z"/>
<path d="M45 685 c-27 -13 -43 -24 -34 -24 10 -1 27 -25 45 -63 15 -35 30 -65
31 -68 2 -3 -13 -6 -33 -8 -39 -2 -54 -8 -54 -21 0 -5 19 -5 43 0 23 4 45 8
50 9 4 0 7 7 7 16 0 14 2 14 15 0 8 -8 15 -19 15 -24 0 -11 106 -120 140 -144
21 -15 22 -17 5 -13 -11 3 -6 -1 12 -10 22 -10 31 -20 27 -30 -4 -8 -2 -15 4
-15 10 0 23 -42 27 -82 1 -10 4 -21 8 -24 4 -4 7 -17 7 -29 0 -12 3 -25 7 -29
9 -8 14 -30 20 -83 3 -24 9 -43 14 -43 25 0 -3 131 -66 306 -24 64 -29 72 -70
92 -59 29 -146 145 -185 247 -8 20 -5 29 12 45 28 26 16 24 -47 -5z"/>
<path d="M393 696 c-4 -5 3 -7 15 -4 17 5 23 1 28 -18 3 -13 10 -21 15 -18 5
3 5 13 -1 23 -5 10 -6 21 -3 25 4 3 -6 5 -21 4 -15 -1 -30 -7 -33 -12z"/>
<path d="M737 699 c-14 -4 -28 -4 -31 -1 -3 3 -6 0 -6 -6 0 -15 112 -19 215
-9 44 5 199 9 345 9 146 1 240 4 210 8 -70 8 -562 7 -575 -2 -6 -3 -38 -3 -71
1 -34 4 -72 4 -87 0z"/>
<path d="M176 683 c-6 -14 -5 -15 5 -6 7 7 10 15 7 18 -3 3 -9 -2 -12 -12z"/>
<path d="M1530 692 c0 -8 376 -4 395 3 6 2 -81 4 -192 4 -112 0 -203 -4 -203
-7z"/>
<path d="M1988 693 c7 -3 16 -2 19 1 4 3 -2 6 -13 5 -11 0 -14 -3 -6 -6z"/>
<path d="M2108 693 c7 -3 16 -2 19 1 4 3 -2 6 -13 5 -11 0 -14 -3 -6 -6z"/>
<path d="M339 682 c-2 -21 -4 -27 -12 -40 -5 -7 -13 -9 -19 -6 -7 4 -8 2 -4
-4 11 -18 53 6 51 29 -1 21 -14 38 -16 21z"/>
<path d="M450 640 c-11 -7 -11 -10 -2 -10 7 0 11 -4 8 -9 -4 -5 4 -6 16 -3 21
6 21 7 4 10 -15 3 -16 6 -5 13 8 5 10 9 4 9 -5 0 -17 -5 -25 -10z"/>
<path d="M155 590 c-3 -6 1 -7 9 -4 18 7 21 14 7 14 -6 0 -13 -4 -16 -10z"/>
<path d="M700 571 c0 -21 35 -69 44 -60 4 3 -4 19 -16 34 -28 36 -2 21 30 -17
13 -15 29 -28 35 -28 6 0 0 12 -14 26 -13 14 -23 28 -21 31 3 5 -44 33 -54 33
-2 0 -4 -9 -4 -19z"/>
<path d="M180 575 c0 -2 7 -8 15 -15 12 -10 15 -10 15 2 0 8 -7 15 -15 15 -8
0 -15 -1 -15 -2z"/>
<path d="M396 539 c4 -8 -1 -9 -16 -4 -15 5 -20 3 -16 -3 3 -6 -4 -12 -16 -14
l-23 -3 24 -14 c17 -10 26 -10 35 -1 8 8 6 9 -8 4 -14 -5 -17 -4 -12 5 5 8 19
10 37 6 32 -7 69 1 69 15 0 5 -13 7 -30 4 -19 -4 -30 -2 -30 5 0 6 -5 11 -11
11 -5 0 -7 -5 -3 -11z"/>
<path d="M795 528 c16 -12 34 -23 40 -24 29 -3 75 -17 75 -24 0 -5 3 -17 7
-27 6 -17 5 -17 -13 -1 -11 10 -54 22 -106 29 -63 9 -85 16 -81 26 3 7 0 13
-6 13 -6 0 -11 -18 -11 -41 0 -57 -40 -135 -110 -214 -60 -68 -65 -80 -93
-203 -10 -46 -11 -62 -2 -62 6 0 12 6 13 13 1 12 15 72 33 140 6 21 29 58 55
85 24 26 52 59 61 75 10 15 21 27 25 27 4 0 8 8 8 18 0 29 30 83 42 76 6 -4 8
2 3 16 -7 22 -6 22 46 15 37 -5 59 -15 76 -33 12 -14 23 -28 23 -32 0 -3 12
-22 26 -41 19 -25 25 -28 22 -13 -3 12 -2 39 2 60 l6 39 23 -47 c13 -27 27
-48 33 -48 5 0 6 -4 3 -10 -3 -5 1 -10 10 -10 11 0 15 -5 12 -14 -3 -8 1 -33
10 -56 13 -33 15 -50 6 -81 -7 -25 -7 -36 0 -32 6 4 8 -5 4 -26 -5 -24 -4 -30
6 -25 19 12 -13 -27 -46 -57 -39 -34 -19 -48 21 -14 45 37 66 88 53 128 -6 17
-15 62 -21 98 -12 78 -27 111 -78 170 -21 24 -45 56 -54 70 -10 16 -31 29 -59
36 -24 6 -55 14 -69 18 -24 6 -24 6 5 -17z m115 -114 c19 -49 3 -42 -29 11
-20 35 -20 35 0 25 11 -6 24 -22 29 -36z"/>
<path d="M198 513 c7 -3 16 -2 19 1 4 3 -2 6 -13 5 -11 0 -14 -3 -6 -6z"/>
<path d="M2720 475 c0 -6 9 -11 20 -12 11 -1 20 4 20 12 0 8 -9 13 -20 12 -11
-1 -20 -6 -20 -12z"/>
<path d="M2780 480 c0 -5 12 -11 28 -11 15 -1 40 -3 55 -5 22 -2 26 0 18 10
-13 15 -101 21 -101 6z"/>
<path d="M2985 470 c3 -5 8 -10 11 -10 2 0 4 5 4 10 0 6 -5 10 -11 10 -5 0 -7
-4 -4 -10z"/>
<path d="M410 439 c0 -6 -9 -8 -20 -4 -15 5 -18 3 -14 -8 6 -16 44 -12 44 5 0
5 10 6 23 3 17 -5 19 -4 7 4 -19 14 -40 14 -40 0z"/>
<path d="M2798 431 c15 -13 18 -21 10 -24 -16 -6 -9 -13 22 -22 22 -7 23 -6
11 9 -12 14 -10 16 23 16 40 0 51 24 15 33 -16 4 -18 3 -8 -9 9 -11 7 -14 -12
-14 -13 0 -37 7 -54 15 l-30 15 23 -19z"/>
<path d="M2960 430 c0 -5 5 -10 11 -10 5 0 7 5 4 10 -3 6 -8 10 -11 10 -2 0
-4 -4 -4 -10z"/>
<path d="M870 357 c0 -14 28 -56 33 -50 4 3 7 -2 8 -13 0 -10 3 -13 6 -6 2 6
-7 26 -21 43 -14 17 -26 28 -26 26z"/>
<path d="M2865 330 c-3 -5 1 -10 10 -10 9 0 13 5 10 10 -3 6 -8 10 -10 10 -2
0 -7 -4 -10 -10z"/>
<path d="M899 225 c-8 -19 -175 -126 -298 -191 -79 -42 -44 -41 39 1 40 20 69
31 65 25 -6 -9 -2 -9 14 -1 11 7 21 14 21 17 0 3 -4 2 -10 -1 -5 -3 -10 -4
-10 -1 0 3 10 10 21 17 17 9 20 8 14 -3 -4 -7 3 -2 15 12 12 14 18 18 14 10
-4 -8 6 0 23 18 17 17 38 32 48 32 9 0 14 4 10 9 -3 6 4 15 15 21 23 12 23 14
9 -70 -6 -40 -18 -73 -30 -86 -16 -17 -17 -24 -8 -30 8 -4 15 -2 17 6 3 7 21
31 41 54 19 23 26 32 13 22 -25 -22 -28 -10 -9 37 11 25 11 40 2 72 -6 22 -13
36 -16 30z"/>
<path d="M1011 190 c-7 -23 -10 -44 -8 -47 7 -6 29 65 25 79 -2 6 -10 -8 -17
-32z"/>
<path d="M962 120 c-18 -29 -15 -38 4 -12 9 13 14 25 12 27 -2 2 -9 -5 -16
-15z"/>
<path d="M860 120 c-8 -5 -11 -12 -7 -16 4 -4 13 -2 19 4 15 15 7 24 -12 12z"/>
<path d="M818 82 c-75 -50 -108 -75 -104 -80 7 -6 53 23 89 56 15 15 27 20 27
13 0 -7 -14 -26 -31 -42 -30 -28 -30 -29 -8 -29 12 0 19 3 16 7 -4 3 2 12 13
20 11 8 20 20 20 28 0 8 7 18 16 23 14 8 14 10 1 15 -8 3 -26 -2 -39 -11z"/>
<path d="M1090 70 c0 -40 11 -70 25 -70 11 0 11 8 3 38 -13 47 -28 65 -28 32z"/>
<path d="M0 70 c0 -4 21 -16 48 -25 127 -45 171 -53 89 -16 -64 29 -137 51
-137 41z"/>
<path d="M658 34 c-38 -20 -36 -28 2 -9 17 9 30 18 30 20 0 7 -1 6 -32 -11z"/>
<path d="M6 30 c5 -5 25 -13 44 -16 23 -4 32 -3 25 3 -5 6 -26 13 -45 17 -23
4 -31 3 -24 -4z"/>
</g>
</svg>
